<svg xmlns="http://www.w3.org/2000/svg" viewBox="0 0 682.7 115.5"><title>uga-admissions-logo</title><path d="M546.8,24h0c-11.5,0-17.5,8.2-17.5,16.2s7.2,16.2,16.8,16.2,17.2-7,17.2-16.6S556.2,24,546.8,24Zm8.7,17.1c0,7.7-3.3,12.2-8.4,12.2s-10-5.6-10-13.9,3.6-12.3,8.7-12.3h.1C551.7,27.1,555.5,32.3,555.5,41.1Z" style="fill:#ba0c2f"/><path d="M398.7,24h0c-11.5,0-17.5,8.2-17.5,16.2s7.3,16.2,16.9,16.2,17.2-7,17.2-16.6S408.2,24,398.7,24Zm8.8,17.1c0,7.7-3.4,12.7-8.5,12.7s-10-6.1-10-14.4,3.6-12.8,8.8-12.8h0C403.7,26.6,407.5,32.3,407.5,41.1Z" style="fill:#ba0c2f"/><path d="M492.5,42.9V54.7l-1.2.2a43.7,43.7,0,0,1-9.9,1.5c-11.5,0-18.9-6.2-18.9-15.9,0-11.3,9.8-16.5,18.9-16.5a47,47,0,0,1,10.1,1.7v7.4a11.4,11.4,0,0,0-9.9-6,10.8,10.8,0,0,0-10.5,7.4,15.7,15.7,0,0,0-.8,5.2c0,9.8,5.8,13.7,11.6,13.7a5.9,5.9,0,0,0,2.7-.5,2.6,2.6,0,0,0,1-2.4V43.9a5.4,5.4,0,0,0-2.9-5.2h11.9S492.5,39.3,492.5,42.9Z" style="fill:#ba0c2f"/><path d="M628,42.9V54.7l-1.2.2a43.7,43.7,0,0,1-9.9,1.5c-11.4,0-18.9-6.2-18.9-15.9,0-11.3,9.8-16.5,18.9-16.5A47,47,0,0,1,627,25.7v7.4a11.3,11.3,0,0,0-9.8-6,11,11,0,0,0-10.6,7.4,18.8,18.8,0,0,0-.8,5.2c0,9.8,5.8,13.7,11.6,13.7a5.7,5.7,0,0,0,2.7-.5,2.6,2.6,0,0,0,1-2.4V43.9a5.4,5.4,0,0,0-2.9-5.2h11.9S628,39.3,628,42.9Z" style="fill:#ba0c2f"/><path d="M182.8,24.7c1.8.8,1.4,3.2.7,5.2L176.8,46c-.8-2-5.6-15.7-5.9-16.4a4.4,4.4,0,0,1,1-4.9H159.5c2.6,1.7,3.3,3.2,4.9,7.2l8.9,23.6v.2h3.3l9.9-23.9c1-2.7,3-5.9,5.2-7.1Z" style="fill:#ba0c2f"/><path d="M215.5,50.9c-1.6,1.8-5.8,1.6-6.4,1.6s-3.1,0-3.9-.4-1-1.4-1-3.6V41.8H208c3.5,0,5.8.2,6.5,1.8V36.4c-.6,1.7-2.9,2-6.5,2h-3.8v-10a.7.7,0,0,1,.7-.6h5.6c2.8,0,4.2.5,5.4,1.9a15.8,15.8,0,0,1,1.9,3.5V24.7H194.7c.7.5,2.6,2.2,2.6,7V48.5c0,5.9-2.9,7.2-2.9,7.2h23.9V46.6A28.3,28.3,0,0,1,215.5,50.9Z" style="fill:#ba0c2f"/><path d="M514.2,52.5c-2.1,0-3.2,0-4-.4s-.9-1.4-.9-3.6V41.8h3.8c3.4,0,5.7.2,6.4,1.8V36.4c-.6,1.7-2.9,2-6.4,2h-3.8V29.2c0-1.4,0-1.4,1.7-1.4h4.5c2.9,0,4.2.5,5.4,1.9a15.8,15.8,0,0,1,1.9,3.5V24.7H499.5c.7.5,2.6,2.2,2.6,7V48.5c0,5.9-2.9,7.2-2.9,7.2h24.1V46.6a21.6,21.6,0,0,1-2.8,4.3C518.9,52.7,514.8,52.5,514.2,52.5Z" style="fill:#ba0c2f"/><path d="M647,55.7s-2.9-1.3-2.9-7.2V31.7c0-4.8,1.9-6.5,2.6-7H634.6c.8.5,2.7,2.2,2.7,7V48.5c0,5.9-2.9,7.2-2.9,7.2Z" style="fill:#ba0c2f"/><path d="M138.8,55.7s-2.9-1.3-2.9-7.2V31.7c0-4.8,1.9-6.5,2.6-7h-8.6c.7.5,2.6,2.2,2.6,7V44.3L115.3,24.7h-7.6c.8.5,2.7,2.2,2.7,7V48.5c0,5.9-2.9,7.2-2.9,7.2h9.2s-2.9-1.3-2.9-7.2V33.8l18.3,21.9Z" style="fill:#ba0c2f"/><path d="M297.3,55.7s-2.9-1.3-2.9-7.2V31.7c0-4.8,1.9-6.5,2.6-7H285.1c.8.5,2.7,2.2,2.7,7V48.5c0,5.9-2.8,7.2-2.8,7.2Z" style="fill:#ba0c2f"/><path d="M156,55.7s-2.9-1.3-2.9-7.2V31.7c0-4.8,1.9-6.5,2.6-7h-12c.8.5,2.6,2.2,2.6,7V48.5c0,5.9-2.9,7.2-2.9,7.2Z" style="fill:#ba0c2f"/><path d="M682.7,55.7c-2.7-1.7-3.4-3.2-4.9-7.2-2.6-6.7-6.1-16.1-8.9-23.6v-.2h-3.7l-9.9,23.9c-1.1,2.7-3,5.9-5.2,7.1h9.1c-1.9-.8-1.4-3.2-.7-5.2.2-.3.7-1.6,1.4-3.3h10.1l1.3,3.6a4.4,4.4,0,0,1-.9,4.9Zm-21.5-12,4-9.6,3.5,9.6Z" style="fill:#ba0c2f"/><path d="M270.6,36.6c-4.4-2.1-5.9-3.3-6-5.9s1.4-4.1,4.5-4.1a8.8,8.8,0,0,1,8.5,5.4V25.4a30.8,30.8,0,0,0-8-1.3c-6.7,0-11.2,3.9-11.2,9.2s4.1,7.5,9.2,9.9,5.8,3.1,5.8,5.8a4.3,4.3,0,0,1-4.6,4.6c-5.1,0-8.8-4.7-10-7.7l.2,7.9a25.8,25.8,0,0,0,4.4,1.8,17.2,17.2,0,0,0,4.7.7c6.8,0,11.9-3.3,11.9-9.6C280,42,275.8,39,270.6,36.6Z" style="fill:#ba0c2f"/><path d="M432.4,55.7s-2.9-1.3-2.9-7.2V41.9h3.8c3.5,0,5.8.2,6.5,1.9V36.4c-.6,1.7-2.9,2-6.5,2h-3.8V29.1c0-1.4,0-1.4,1.7-1.4h4.6c2.8,0,4.2.5,5.4,1.9a15.6,15.6,0,0,1,1.9,3.6V24.7H419.9c.7.5,2.6,2.2,2.6,7V48.5c0,5.9-2.9,7.2-2.9,7.2Z" style="fill:#ba0c2f"/><path d="M319.2,29.2c0-1.4,0-1.4,1.7-1.4h1.4c2.8,0,4.2.5,5.4,1.9a15.8,15.8,0,0,1,1.9,3.5V24.7H301.8v8.5a15.8,15.8,0,0,1,1.9-3.5c1.2-1.4,2.6-1.9,5.4-1.9h1.4c1.7,0,1.7,0,1.7,1.4V48.5c0,5.9-2.9,7.2-2.9,7.2h12.8s-2.9-1.3-2.9-7.2Z" style="fill:#ba0c2f"/><path d="M96.7,41.8V31.7c0-4.8-1.9-6.5-2.6-7H103c-.7.5-2.6,2.2-2.6,7v10s1.4,14.5-11.9,14.7c0,0-13.8.8-13.8-10.9V31.7c0-4.8-1.9-6.5-2.7-7H84c-.7.5-2.6,2.2-2.6,7V43.5c0,9.8,7.5,9.6,7.5,9.6S96.7,54.5,96.7,41.8Z" style="fill:#ba0c2f"/><path d="M352.1,24.8s3.6,1.9,2.3,4.8l-4.6,9L345,29.8c-1.7-3.1,1.4-5,1.4-5H333.1a14.4,14.4,0,0,1,5.1,5.2L345,41.8v6.7c0,5.9-2.9,7.2-2.9,7.2h12.6s-2.9-1.3-2.9-7.2v-7l5.8-10.8a13.4,13.4,0,0,1,5.9-5.9Z" style="fill:#ba0c2f"/><path d="M242.5,33.7a6.4,6.4,0,0,1-2.2,5.3h0a7.5,7.5,0,0,1-4.6,1.1h-.9V29.1c0-.9.1-1.3.3-1.5a3.6,3.6,0,0,1,2.1-.5C239.8,27.1,242.5,28.9,242.5,33.7Zm6.2,15c-1.4-2.2-3.5-5.6-4.5-7.5,2.2-.9,5.6-3,5.6-7.5h0V33a7.8,7.8,0,0,0-3.3-6.5c-2-1.3-4.4-1.8-8.9-1.8H225.4c.8.5,2.7,2.2,2.7,7V48.5c0,5.9-2.9,7.2-2.9,7.2h12.5s-2.9-1.3-2.9-7.2V42.6h.9a3,3,0,0,1,3,1.8l1.4,2.5c.9,1.7,2,3.8,2.8,5.1,2,2.9,3.5,4.2,9.5,4h1.8S252.2,54.4,248.7,48.7Z" style="fill:#ba0c2f"/><path d="M584,33.7a6.4,6.4,0,0,1-2.2,5.3h0a7.5,7.5,0,0,1-4.6,1.1h-1V29.1c0-.9.1-1.3.4-1.5a3,3,0,0,1,2-.5C581.2,27.1,584,28.9,584,33.7Zm6.1,15c-1.3-2.2-3.4-5.6-4.4-7.5,2.2-.9,5.5-3,5.5-7.5h0V33a7.7,7.7,0,0,0-3.2-6.5c-2-1.3-4.4-1.8-8.9-1.8H566.9c.7.5,2.6,2.2,2.6,7V48.5c0,5.9-2.9,7.2-2.9,7.2h12.5s-2.9-1.3-2.9-7.2V42.6h1a3.1,3.1,0,0,1,3,1.8l1.4,2.5c.8,1.7,2,3.8,2.8,5.1,1.9,2.9,3.5,4.2,9.5,4h1.8S593.6,54.4,590.1,48.7Z" style="fill:#ba0c2f"/><path d="M53.5,0V57c0,10.8-13.6,18.5-26.8,20.7C13.6,75.5,0,67.8,0,57V0Z" style="fill:#fff"/><path d="M35.9,13.4a13.5,13.5,0,0,0-9.2-3.5,13.6,13.6,0,0,0-9.3,3.5,13.7,13.7,0,0,0-4.6,7.8H40.5A13.7,13.7,0,0,0,35.9,13.4Z"/><path d="M24.3,24.1h-11a.9.9,0,0,0-.9.9V47.5a1.4,1.4,0,0,0,.7,1.2c.1.1.2.1.2.2v5.8L15,53.1h9.3V48.9c0-.1.1-.1.2-.2a1.4,1.4,0,0,0,.7-1.2V25.1A1,1,0,0,0,24.3,24.1Z"/><path d="M40,24.1H29a.9.9,0,0,0-.9.9V47.5a1.3,1.3,0,0,0,.8,1.2c0,.1.1.1.1.2v5.8l1.7-1.6H40V48.9c0-.1.1-.1.2-.2a1.4,1.4,0,0,0,.7-1.2V25.1A1,1,0,0,0,40,24.1Z"/><path d="M9.8,68.6a45,45,0,0,0,16.9,6.7,45.5,45.5,0,0,0,17-6.7c3.3-2.4,7.4-6.3,7.4-11.6V55.7H44.7v4.6a.2.2,0,0,1-.2.2H40.3c-.1,0-.3-.1-.3-.2V55.7H29v4.6c0,.1-.1.2-.3.2H24.6c-.2,0-.3-.1-.3-.2V55.7h-11v4.6c0,.1-.1.2-.3.2H8.9c-.2,0-.3-.1-.3-.2V55.7H2.4V57C2.4,62.3,6.4,66.2,9.8,68.6Z" style="fill:#ba0c2f"/><path d="M8.6,48.9c0-.1.1-.1.2-.2a1.4,1.4,0,0,0,.7-1.2V25.1a1,1,0,0,0-.9-1l-.2-.3V21.5c0-.2.1-.3.2-.3h1.7A16.8,16.8,0,0,1,26.7,7.5a16.5,16.5,0,0,1,10.8,4.1A16.8,16.8,0,0,1,43,21.2h1.7c.1,0,.2.1.2.3v2.3l-.2.3a.9.9,0,0,0-.9.9V47.5a1.3,1.3,0,0,0,.8,1.2c0,.1.1.1.1.2v5.8l1.7-1.6h4.7V2.4H2.4V53.1H8.6Z"/><path d="M19.3,68.7V64.2l-2.3.2v.3h0l.8.2a.7.7,0,0,1,.1.5v3.3c0,.3-.3.4-.9.4v.3h3.3v-.3C19.6,69.1,19.3,69,19.3,68.7Z" style="fill:#fff"/><path d="M22.1,66.2c.1-.7.3-.8,1-.8H25l-2.8,3.8v.3h1.1l1-2.1,1.5-2.6v-.5h-4v1.9Z" style="fill:#fff"/><path d="M30,66.5h.1c.7-.3,1-.7,1-1.1s-.6-1.3-1.9-1.3-2,.7-2,1.6A1.4,1.4,0,0,0,28,67h0a1.2,1.2,0,0,0-1,1.2c0,.8.8,1.3,2.2,1.3s2.1-.7,2.1-1.6-.4-1.1-1.2-1.5Zm-.9-2c.6,0,1,.3,1,.9a2.6,2.6,0,0,1-.4,1h-.1c-.6-.3-1.3-.6-1.3-1.2A.7.7,0,0,1,29.1,64.5Zm.1,4.7a1,1,0,0,1-1.1-1.1,1.6,1.6,0,0,1,.3-.9h.4c.9.4,1.3.6,1.3,1.1A.8.8,0,0,1,29.2,69.2Z" style="fill:#fff"/><path d="M35,66.3a2.8,2.8,0,0,0-1.3.3h0V65.3h2.9v-1H33.3v2.5l.2.2a2.4,2.4,0,0,1,1.2-.3,1.1,1.1,0,0,1,1.1,1.2c0,.9-.4,1.3-1.1,1.3l-.8-.2h0a.8.8,0,0,0,.4-.7.6.6,0,0,0-.6-.6c-.5,0-.8.2-.8.7s.8,1.2,2.1,1.2a1.8,1.8,0,0,0,2-1.7C36.9,66.7,35.9,66.3,35,66.3Z" style="fill:#fff"/><path d="M49.7,69.9h-.6v-.4h1.6v.4h-.6v1.6h-.4Zm1.4-.4h.5l.5.8.5-.8h.5v2h-.4V70.2l-.6.8h0l-.6-.8v1.3h-.4Z"/><path d="M74.5,100.8V87.5c0-1.1-.6-1.4-3.4-1.5V84.6H82.5V86c-2.5.1-3.1.3-3.1,1.5v13.1c0,4.2,2.4,6,6.2,6a5.7,5.7,0,0,0,4.1-1.6c1.2-1.2,1.7-2.5,1.7-5.2V90.9c0-3.3-.7-4.6-4.1-5V84.6h9.3v1.3c-3.1.5-3.4,1.7-3.4,5v9.7c0,4.6-3.1,8.1-9.1,8.1S74.5,106,74.5,100.8Z"/><path d="M98.3,106.9c2-.1,2.5-.4,2.5-1.3V94.9c0-1.1-.5-1.7-2.5-1.8V91.8l6.7-.2v2.6c1.8-1.4,4-2.8,6.3-2.8s4.2,1.9,4.2,5.2v9c0,.9.4,1.2,2.5,1.3v1.2h-8.8v-1.2c1.6-.1,2.1-.4,2.1-1.3V97.7c0-2.5-.9-3.5-2.8-3.5a6.7,6.7,0,0,0-3.5,1.2v10.2c0,.9.5,1.2,2,1.3v1.2H98.3Z"/><path d="M119.8,100.2c0-4.8,3-8.9,8.1-8.9a8.8,8.8,0,0,1,3.7.8V86.6c0-1.1-.5-1.8-2.7-1.8V83.5l6.9-.3v22.2c0,1,.5,1.5,2.6,1.5v1.2l-6.8.3v-2.2a5.7,5.7,0,0,1-4.7,2.2C122.4,108.4,119.8,104.9,119.8,100.2Zm11.8,4.7V94.7a4,4,0,0,0-3.3-1.9c-2.2,0-4,2.3-4,7s1.7,6.3,4.3,6.3A4.2,4.2,0,0,0,131.6,104.9Z"/><path d="M140,100.1c0-5.3,3.3-8.8,8.2-8.8s7.4,3.9,7.1,8.4H144.5v.2h0c0,3.8,1.7,6.5,5.1,6.5s3.5-1.2,4.9-2.9l.9.7c-1.5,2.4-3.6,4.3-7.2,4.3C143,108.5,140,105.2,140,100.1Zm4.6-1.7h6.3c.4-3.1-.6-5.6-2.9-5.6S144.8,94.6,144.6,98.4Z"/><path d="M157.8,106.9c2.1-.1,2.5-.4,2.5-1.3V94.9c0-1.1-.4-1.7-2.5-1.8V91.8l6.7-.2v2.9c1.3-1.7,2.9-3.1,4.8-3.1a2.8,2.8,0,0,1,3.1,2.9,2.4,2.4,0,0,1-2.3,2.6c-1.5,0-2.5-.8-2.5-2.1s.1-.5.1-.7a4.4,4.4,0,0,0-3.1,1.7v9.8c0,.9.6,1.2,3.1,1.3v1.2h-9.9Z"/><path d="M184.6,92c.8-1.6,1.9-3.1,3.7-3.1a2,2,0,0,1,2.2,1.9,1.6,1.6,0,0,1-1.6,1.7,1.6,1.6,0,0,1-1.6-1.8,3.5,3.5,0,0,0-1.7,1.7,5,5,0,0,1,2.7,4.5c0,3.5-2.9,5.6-6.9,5.6l-2-.2c-1.3.5-2,1-2,1.6s.7,1.3,3.8,1.3h1.7c4.7,0,6.9,1.3,6.9,4.4s-3.3,5.9-9,5.9-7.4-1.7-7.4-3.8,1.4-2.9,4.2-3.3v-.2c-2.2-.7-2.9-1.7-2.9-3.1s1-2.3,3-3.2a5,5,0,0,1-3.3-4.9c0-3.4,2.9-5.6,7-5.6A8.7,8.7,0,0,1,184.6,92Zm2.2,19c0-1.3-.9-2.1-5.2-2.1h-2.9c-1.5.4-2.4,1.1-2.4,2.4s1.7,2.9,5.4,2.9S186.8,112.9,186.8,111Zm-2.7-14c0-2.7-1.1-4.2-2.9-4.2s-2.6,1.2-2.6,4.2,1.1,4.2,2.9,4.2S184.1,100,184.1,97Z"/><path d="M191.4,106.9c2-.1,2.5-.4,2.5-1.3V94.9c0-1.1-.5-1.7-2.5-1.8V91.8l6.6-.2v2.9c1.3-1.7,3-3.1,4.9-3.1a2.8,2.8,0,0,1,3,2.9,2.4,2.4,0,0,1-2.3,2.6c-1.5,0-2.4-.8-2.4-2.1v-.7a4.6,4.6,0,0,0-3.1,1.7v9.8c0,.9.6,1.2,3.2,1.3v1.2h-9.9Z"/><path d="M207.6,104.4a4.5,4.5,0,0,1,2.2-3.9c2.7-1.4,6.8-1.6,7.8-2V96.8c0-3-1-4-3-4a3.1,3.1,0,0,0-1.9.6,5.3,5.3,0,0,1,.4,1.8,2.4,2.4,0,0,1-4.8,0c0-2.1,2.9-3.8,7.3-3.8s6.1,2,6.1,5.8v7.3c0,1.8.4,2.1,2.6,1.8l.3,1a7.5,7.5,0,0,1-3.7,1.1c-2.2,0-2.7-.8-3.1-2.5h-.2a7.5,7.5,0,0,1-5.3,2.6C209,108.5,207.6,106.4,207.6,104.4Zm10,0V99.8c-4.2.7-5.4,1.4-5.4,3.6s.8,2.7,2.4,2.7A4,4,0,0,0,217.6,104.4Z"/><path d="M225.6,100.2c0-4.8,3-8.9,8.2-8.9a8.7,8.7,0,0,1,3.6.8V86.6c0-1.1-.5-1.8-2.6-1.8V83.5l6.9-.3v22.2c0,1,.5,1.5,2.5,1.5v1.2l-6.7.3v-2.2a5.9,5.9,0,0,1-4.8,2.2C228.2,108.4,225.6,104.9,225.6,100.2Zm11.8,4.7V94.7a3.7,3.7,0,0,0-3.3-1.9c-2.2,0-3.9,2.3-3.9,7s1.6,6.3,4.2,6.3A3.9,3.9,0,0,0,237.4,104.9Z"/><path d="M247.8,103.2V94.6c0-1.1-.5-1.5-2.5-1.6V91.7h6.8v10.5c0,2.5.9,3.5,2.9,3.5a5.5,5.5,0,0,0,3.2-1v-10c0-1.1-.6-1.5-2.5-1.6V91.7h6.8v13.9c0,1,.5,1.3,2.5,1.4v1.2h-6.7v-2.3a8.9,8.9,0,0,1-5.9,2.6C249.6,108.4,247.8,106.6,247.8,103.2Z"/><path d="M267,104.4a4.6,4.6,0,0,1,2.3-3.9c2.6-1.4,6.7-1.6,7.7-2V96.8c0-3-1-4-3-4a3.6,3.6,0,0,0-1.9.6,3.7,3.7,0,0,1,.5,1.8,2.3,2.3,0,0,1-2.5,2.3,2.2,2.2,0,0,1-2.3-2.3c0-2.1,2.8-3.8,7.2-3.8s6.2,2,6.2,5.8v7.3c0,1.8.4,2.1,2.5,1.8l.4,1a8.2,8.2,0,0,1-3.8,1.1c-2.2,0-2.6-.8-3.1-2.5h-.1a7.7,7.7,0,0,1-5.4,2.6C268.4,108.5,267,106.4,267,104.4Zm10,0V99.8c-4.1.7-5.4,1.4-5.4,3.6a2.4,2.4,0,0,0,2.5,2.7A3.7,3.7,0,0,0,277,104.4Z"/><path d="M287.4,103.6v-10h-3.1V92.3l3.2-.7V87.2l4.2-1.4v5.9h5.2v1.9h-5.2v9.8c0,1.8.7,2.7,2,2.7s1.9-.8,2.7-2.1l1.1.6c-1.3,2.6-2.9,3.8-5.5,3.8S287.4,107,287.4,103.6Z"/><path d="M298.9,100.1c0-5.3,3.3-8.8,8.2-8.8s7.4,3.9,7.1,8.4H303.4v.2h0c0,3.8,1.7,6.5,5.1,6.5s3.5-1.2,4.9-2.9l.9.7c-1.5,2.4-3.6,4.3-7.2,4.3C301.8,108.5,298.9,105.2,298.9,100.1Zm4.5-1.7h6.4c.3-3.1-.7-5.6-2.9-5.6S303.7,94.6,303.4,98.4Z"/><path d="M337,99.5h-7.6l-1.2,3.2c-1.2,3.2-.9,3.6,2.1,4.1v1.3h-8.2v-1.3c2.3-.5,3-1.6,4.2-4.6l7-17.9h3.2l7.2,19.9c.5,1.6,1.2,2.2,3.7,2.6v1.3H335.5v-1.3c3.2-.2,3.7-.8,3.1-2.6Zm-.5-1.5-2.9-8.8h-.3L330,98Z"/><path d="M348.4,100.2c0-4.8,3-8.9,8.2-8.9a8.7,8.7,0,0,1,3.6.8V86.6c0-1.1-.5-1.8-2.7-1.8V83.5l6.9-.3v22.2c0,1,.5,1.5,2.6,1.5v1.2l-6.7.3v-2.2a5.9,5.9,0,0,1-4.8,2.2C351,108.4,348.4,104.9,348.4,100.2Zm11.8,4.7V94.7a3.7,3.7,0,0,0-3.3-1.9c-2.2,0-3.9,2.3-3.9,7s1.6,6.3,4.2,6.3A4.1,4.1,0,0,0,360.2,104.9Z"/><path d="M379.5,106.9c1.5-.1,1.8-.4,1.8-1.3V97.7c0-2.5-.9-3.5-2.8-3.5a6,6,0,0,0-3.2,1.2v10.2c0,.9.3,1.2,1.9,1.3v1.2h-8.6v-1.2c2-.1,2.5-.4,2.5-1.3V94.9c0-1.1-.5-1.7-2.5-1.8V91.8l6.7-.2v2.6c1.8-1.4,3.7-2.8,6-2.8a3.8,3.8,0,0,1,4,3.2c1.9-1.7,4.1-3.2,6.3-3.2s4.2,1.9,4.2,5.2v9c0,.9.5,1.2,2.5,1.3v1.2h-8.6v-1.2c1.6-.1,1.9-.4,1.9-1.3V97.7c0-2.5-.8-3.5-2.7-3.5a7.1,7.1,0,0,0-3.4,1.5,4.6,4.6,0,0,1,.1,1v8.9c0,.9.3,1.2,2,1.3v1.2h-8.1Z"/><path d="M399.9,106.9c2.1-.1,2.6-.4,2.6-1.3V94.9c0-1.1-.5-1.7-2.6-1.8V91.8l6.9-.2v14c0,.9.4,1.2,2.5,1.3v1.2h-9.4ZM402,85.7a2.5,2.5,0,0,1,2.6-2.7,2.4,2.4,0,0,1,2.6,2.6,2.5,2.5,0,0,1-2.6,2.7A2.4,2.4,0,0,1,402,85.7Z"/><path d="M411.8,102.8h1.4c1.5,2.6,3.6,4.2,5.5,4.2s2.7-1,2.7-2.3-1.2-2.2-4.4-3.1-5.1-2.3-5.1-4.8,2.6-5.5,6.4-5.5a7.6,7.6,0,0,1,3.5,1l.8-1h1.3v5.1h-1.4c-1.4-2.2-2.9-3.6-4.6-3.6a2.3,2.3,0,0,0-2.6,2.2c0,1.5,1.4,2.1,3.9,2.7s5.5,2.3,5.5,5.1-2.4,5.6-6.3,5.6a9.3,9.3,0,0,1-4.2-1.1l-1.1,1.1h-1.3Z"/><path d="M427.8,102.8h1.3c1.6,2.6,3.7,4.2,5.5,4.2s2.8-1,2.8-2.3-1.2-2.2-4.4-3.1-5.1-2.3-5.1-4.8,2.6-5.5,6.4-5.5a7.6,7.6,0,0,1,3.5,1l.8-1h1.3v5.1h-1.4c-1.4-2.2-2.9-3.6-4.6-3.6a2.3,2.3,0,0,0-2.6,2.2c0,1.5,1.3,2.1,3.9,2.7s5.5,2.3,5.5,5.1-2.4,5.6-6.3,5.6a9,9,0,0,1-4.2-1.1l-1.1,1.1h-1.3Z"/><path d="M443.1,106.9c2.1-.1,2.6-.4,2.6-1.3V94.9c0-1.1-.5-1.7-2.6-1.8V91.8l6.8-.2v14c0,.9.5,1.2,2.6,1.3v1.2h-9.4Zm2.1-21.2a2.5,2.5,0,0,1,2.6-2.7,2.5,2.5,0,0,1,2.6,2.6,2.5,2.5,0,0,1-2.6,2.7A2.4,2.4,0,0,1,445.2,85.7Z"/><path d="M454.5,99.9c0-5.2,3.3-8.6,8.5-8.6s8.4,3.3,8.4,8.5-3.3,8.7-8.4,8.7S454.5,105.1,454.5,99.9Zm12.3,0c0-5-1.4-7.2-4-7.2s-3.7,2.2-3.7,7.2,1.4,7.2,4,7.2S466.8,104.8,466.8,99.9Z"/><path d="M473.8,106.9c2-.1,2.5-.4,2.5-1.3V94.9c0-1.1-.5-1.7-2.5-1.8V91.8l6.7-.2v2.6c1.8-1.4,4-2.8,6.3-2.8s4.2,1.9,4.2,5.2v9c0,.9.5,1.2,2.5,1.3v1.2h-8.8v-1.2c1.6-.1,2.1-.4,2.1-1.3V97.7c0-2.5-.9-3.5-2.8-3.5a7,7,0,0,0-3.5,1.2v10.2c0,.9.5,1.2,2,1.3v1.2h-8.7Z"/><path d="M495.8,102.8h1.3c1.6,2.6,3.6,4.2,5.5,4.2s2.8-1,2.8-2.3-1.2-2.2-4.4-3.1-5.2-2.3-5.2-4.8,2.7-5.5,6.5-5.5a7.6,7.6,0,0,1,3.5,1l.8-1h1.3v5.1h-1.4c-1.4-2.2-2.9-3.6-4.6-3.6a2.3,2.3,0,0,0-2.6,2.2c0,1.5,1.3,2.1,3.9,2.7s5.5,2.3,5.5,5.1-2.5,5.6-6.3,5.6a9,9,0,0,1-4.2-1.1l-1.1,1.1h-1.3Z"/></svg>